:FULLY-SPECIFIED
:FORCE-ALL-JOINTS-BE-3DOF
:DEGREES
272
root 7.74997 15.9095 -25.1229 10.4586 51.3655 4.51166
lfemur -29.5168 20.9244 -17.43
ltibia 47.2459 0 0
lfoot -16.7799 -14.5886 0
ltoes 55.366 0 0
rfemur -29.1197 -4.53677 14.9739
rtibia 57.6762 0 0
rfoot 16.2576 -7.90701 0
rtoes 2.16988 0 0
lowerback 4.11983 -2.89086 -3.39285
upperback 1.20268 -4.02367 0.499622
thorax -0.758114 -2.00737 2.59344
lowerneck -8.53361 -8.37822 -2.1326
upperneck 0.874814 -11.0099 4.19012
head 2.18616 -5.43628 1.19581
lclavicle -8.08287e-15 -6.25208e-15 0
lhumerus -48.1737 -36.2273 112.129
lradius 60.6823 0 0
lwrist 20.5158 0 0
lhand 8.96968 12.0869 0
lfingers 7.12502 0 0
lthumb 34.1425 38.7869 0
rclavicle -8.08287e-15 -6.25208e-15 0
rhumerus -40.6505 21.1121 -66.7514
rradius 55.6294 0 0
rwrist 31.0688 0 0
rhand -8.57885 -1.30389 0
rfingers 7.12502 0 0
rthumb 17.3226 -750.314 0
273
root 7.79404 15.893 -25.0852 10.5313 51.6615 4.91278
lfemur -29.1049 20.8514 -17.4669
ltibia 47.4507 0 0
lfoot -16.7604 -15.0943 0
ltoes 55.6467 0 0
rfemur -29.9963 -5.13474 15.8671
rtibia 57.6957 0 0
rfoot 16.3381 -6.93695 0
rtoes 1.92095 0 0
lowerback 4.3158 -2.91134 -3.58076
upperback 1.33544 -4.06457 0.33807
thorax -0.724804 -2.02894 2.54
lowerneck -8.44511 -8.43518 -2.15683
upperneck 0.77525 -11.088 4.41896
head 2.15944 -5.4729 1.27408
lclavicle -8.55767e-15 -6.65176e-15 0
lhumerus -47.9433 -36.3833 111.631
lradius 60.6276 0 0
lwrist 20.5705 0 0
lhand 9.11593 12.0574 0
lfingers 7.12502 0 0
lthumb 34.2812 38.7246 0
rclavicle -8.55767e-15 -6.65176e-15 0
rhumerus -40.5474 23.0181 -66.866
rradius 56.4701 0 0
rwrist 30.2538 0 0
rhand -7.86888 -1.26562 0
rfingers 7.12502 0 0
rthumb 18.0052 -750.22 0
274
root 7.83853 15.8763 -25.0469 10.6045 51.9591 5.31743
lfemur -28.6885 20.778 -17.5036
ltibia 47.6569 0 0
lfoot -16.7415 -15.6025 0
ltoes 55.9265 0 0
rfemur -30.8813 -5.73811 16.767
rtibia 57.7141 0 0
rfoot 16.4165 -5.961 0
rtoes 1.67664 0 0
lowerback 4.51355 -2.93188 -3.77018
upperback 1.46953 -4.10564 0.175006
thorax -0.691099 -2.05062 2.48591
lowerneck -8.35551 -8.49282 -2.18089
upperneck 0.674297 -11.167 4.64999
head 2.13227 -5.50997 1.35306
lclavicle -9.05741e-15 -7.05129e-15 0
lhumerus -47.7113 -36.5419 111.129
lradius 60.5724 0 0
lwrist 20.6252 0 0
lhand 9.26372 12.0278 0
lfingers 7.12502 0 0
lthumb 34.4213 38.6619 0
rclavicle -9.05741e-15 -7.05129e-15 0
rhumerus -40.4409 24.9393 -66.9809
rradius 57.3204 0 0
rwrist 29.4283 0 0
rhand -7.15597 -1.23067 0
rfingers 7.12502 0 0
rthumb 18.6905 -750.129 0
275
root 7.88335 15.8594 -25.0081 10.6781 52.2574 5.72488
lfemur -28.2682 20.7045 -17.5401
ltibia 47.8642 0 0
lfoot -16.7233 -16.112 0
ltoes 56.2045 0 0
rfemur -31.7734 -6.34571 17.6717
rtibia 57.7314 0 0
rfoot 16.4926 -4.98102 0
rtoes 1.43751 0 0
lowerback 4.71273 -2.9524 -3.96074
upperback 1.6047 -4.14678 0.0107272
thorax -0.657055 -2.07233 2.43124
lowerneck -8.26493 -8.55105 -2.20469
upperneck 0.572073 -11.2468 4.88278
head 2.10465 -5.54745 1.4326
lclavicle -9.58114e-15 -7.44978e-15 0
lhumerus -47.4782 -36.7029 110.624
lradius 60.5169 0 0
lwrist 20.6797 0 0
lhand 9.41284 11.9982 0
lfingers 7.12502 0 0
lthumb 34.5627 38.5988 0
rclavicle -9.58114e-15 -7.44978e-15 0
rhumerus -40.331 26.8714 -67.0958
rradius 58.179 0 0
rwrist 28.5933 0 0
rhand -6.44205 -1.19963 0
rfingers 7.12502 0 0
rthumb 19.3768 -750.041 0
276
root 7.92844 15.8425 -24.9689 10.7519 52.556 6.13439
lfemur -27.8445 20.6308 -17.5764
ltibia 48.0721 0 0
lfoot -16.706 -16.6215 0
ltoes 56.4798 0 0
rfemur -32.671 -6.95639 18.5793
rtibia 57.7476 0 0
rfoot 16.5664 -3.99887 0
rtoes 1.20408 0 0
lowerback 4.91299 -2.97284 -4.15209
upperback 1.74074 -4.18787 -0.154469
thorax -0.622728 -2.09403 2.37609
lowerneck -8.1735 -8.60983 -2.22813
upperneck 0.468693 -11.3273 5.1169
head 2.07661 -5.58531 1.51255
lclavicle -1.01279e-14 -7.84634e-15 0
lhumerus -47.2445 -36.8663 110.118
lradius 60.461 0 0
lwrist 20.7339 0 0
lhand 9.56307 11.9687 0
lfingers 7.12502 0 0
lthumb 34.7052 38.5355 0
rclavicle -1.01279e-14 -7.84634e-15 0
rhumerus -40.2174 28.8108 -67.2103
rradius 59.0443 0 0
rwrist 27.7501 0 0
rhand -5.72903 -1.17306 0
rfingers 7.12502 0 0
rthumb 20.0623 -749.957 0
277
root 7.97371 15.8255 -24.9294 10.8257 52.854 6.54522
lfemur -27.418 20.5572 -17.6122
ltibia 48.2799 0 0
lfoot -16.6897 -17.13 0
ltoes 56.7515 0 0
rfemur -33.5725 -7.56901 19.4877
rtibia 57.7628 0 0
rfoot 16.6378 -3.01641 0
rtoes 0.976876 0 0
lowerback 5.11397 -2.99312 -4.34387
upperback 1.8774 -4.22879 -0.320286
thorax -0.588175 -2.11566 2.32055
lowerneck -8.08131 -8.66908 -2.25113
upperneck 0.364276 -11.4085 5.35193
head 2.04815 -5.6235 1.59277
lclavicle -1.06968e-14 -8.24008e-15 0
lhumerus -47.0108 -37.032 109.611
lradius 60.405 0 0
lwrist 20.7877 0 0
lhand 9.71419 11.9393 0
lfingers 7.12502 0 0
lthumb 34.8485 38.4722 0
rclavicle -1.06968e-14 -8.24008e-15 0
rhumerus -40.0999 30.7533 -67.3242
rradius 59.9149 0 0
rwrist 26.8998 0 0
rhand -5.01883 -1.15155 0
rfingers 7.12502 0 0
rthumb 20.745 -749.878 0
